<svg width="17" height="17" fill="none" xmlns="http://www.w3.org/2000/svg"><path d="M15.46 12.72c0 .24-.053.487-.167.727-.113.24-.26.466-.453.68-.327.36-.687.62-1.093.786-.4.167-.834.254-1.3.254-.68 0-1.407-.16-2.174-.487a11.714 11.714 0 0 1-2.293-1.32 19.164 19.164 0 0 1-2.187-1.867 18.943 18.943 0 0 1-1.86-2.18c-.546-.76-.986-1.52-1.306-2.273-.32-.76-.48-1.487-.48-2.18 0-.453.08-.887.24-1.287.16-.406.413-.78.766-1.113.427-.42.894-.627 1.387-.627.187 0 .373.04.54.12.173.08.327.2.447.374l1.546 2.18c.12.166.207.32.267.466.06.14.093.28.093.407 0 .16-.046.32-.14.473a2.267 2.267 0 0 1-.373.474l-.507.526a.357.357 0 0 0-.106.267c0 .053.006.1.02.153.02.054.04.094.053.134.12.22.327.506.62.853.3.347.62.7.967 1.053.36.354.706.68 1.06.98.346.294.633.494.86.614.033.013.073.033.12.053a.46.46 0 0 0 .166.027c.114 0 .2-.04.274-.114l.506-.5c.167-.166.327-.293.48-.373a.888.888 0 0 1 .474-.14c.126 0 .26.027.406.087.147.06.3.146.467.26l2.207 1.566c.173.12.293.26.366.427.067.167.107.333.107.52Z" fill="#fff"/></svg>