<svg width="197" height="47" fill="none" xmlns="http://www.w3.org/2000/svg"><path fill-rule="evenodd" clip-rule="evenodd" d="m11.037 5.393-8.49 4.901A5.094 5.094 0 0 0 0 14.706v17.466c0 1.82.97 3.502 2.547 4.412l8.49 4.901v-6.367l-4.673-2.699a1.698 1.698 0 0 1-.85-1.47v-15.02c0-.607.324-1.167.85-1.47l4.673-2.699V5.393Zm18.679 29.544 4.36-2.518c.526-.303.85-.863.85-1.47v-15.02c0-.607-.324-1.167-.85-1.47l-4.36-2.518V5.573l8.177 4.721a5.094 5.094 0 0 1 2.547 4.412v17.466c0 1.82-.97 3.502-2.547 4.412l-8.177 4.72v-6.367ZM15.282 3.003l-2.547 1.47v38.054l2.547 1.47V3.003Zm4.245 43.01a5.088 5.088 0 0 1-1.854-.635l-.692-.4V2.022l.692-.4a5.09 5.09 0 0 1 1.855-.635v45.026Zm4.246-1.216-1.006.58a5.09 5.09 0 0 1-1.541.583V1.04a5.09 5.09 0 0 1 1.541.582l1.006.58v42.595Zm4.245-2.45-2.547 1.47V3.183l2.547 1.47v37.693Z" fill="#F85B18"/><path d="M52.973 36.781v-8.395h1.257c.362-.227.653-.59.873-1.086a8.402 8.402 0 0 0 .554-1.758c.15-.675.263-1.403.341-2.184.086-.788.16-1.584.224-2.387l.426-5.348h12.55v12.763h2.535v8.395h-4.325v-4.794H57.405v4.794h-4.432Zm5.774-8.395h6.168v-9.268h-4.41l-.17 1.854c-.121 1.747-.296 3.231-.523 4.453-.227 1.214-.582 2.201-1.065 2.961Zm15.631 3.601V15.624h6.978c2.017 0 3.612.383 4.784 1.15 1.171.767 1.757 1.857 1.757 3.27 0 .889-.33 1.627-.99 2.217-.661.59-1.577.987-2.749 1.193.98.07 1.815.294 2.504.671.695.37 1.225.849 1.587 1.438.37.59.554 1.243.554 1.96 0 .93-.249 1.73-.746 2.397-.49.668-1.21 1.18-2.163 1.534-.944.356-2.098.533-3.462.533h-8.054Zm4.23-3.398h3.824c.632 0 1.126-.15 1.48-.448.363-.305.544-.72.544-1.246 0-.582-.18-1.04-.543-1.374-.355-.334-.849-.501-1.48-.501h-3.826v3.569Zm0-6.232h2.844c.454 0 .842-.064 1.161-.192.327-.135.576-.327.746-.576.178-.248.266-.543.266-.884 0-.504-.202-.898-.607-1.182-.405-.284-.959-.427-1.662-.427h-2.748v3.26Zm20.513 9.95c-1.684 0-3.132-.341-4.347-1.023a7.004 7.004 0 0 1-2.791-2.919c-.654-1.264-.98-2.76-.98-4.485 0-1.683.326-3.16.98-4.432.653-1.271 1.573-2.262 2.76-2.972 1.192-.71 2.591-1.065 4.197-1.065 1.079 0 2.084.174 3.014.521.938.341 1.755.856 2.451 1.545.703.69 1.25 1.556 1.64 2.6.391 1.037.586 2.251.586 3.643v1.247H92.814v-2.813h9.545c0-.653-.142-1.232-.426-1.736a3.052 3.052 0 0 0-1.182-1.183c-.498-.291-1.076-.437-1.737-.437-.689 0-1.3.16-1.832.48a3.36 3.36 0 0 0-1.236 1.267 3.58 3.58 0 0 0-.458 1.758v2.674c0 .81.149 1.51.447 2.099.306.59.735 1.044 1.29 1.364.553.32 1.21.479 1.97.479a4.29 4.29 0 0 0 1.385-.213 2.872 2.872 0 0 0 1.076-.64 2.78 2.78 0 0 0 .682-1.043l4.197.277a5.725 5.725 0 0 1-1.31 2.642c-.653.745-1.499 1.328-2.535 1.747-1.03.412-2.22.618-3.57.618Zm10.472 5.816v-22.5h4.474v2.75h.203c.199-.441.486-.889.863-1.343.383-.462.88-.845 1.491-1.15.618-.313 1.385-.47 2.301-.47 1.194 0 2.294.313 3.303.938 1.008.618 1.815 1.552 2.418 2.802.604 1.243.906 2.802.906 4.677 0 1.825-.295 3.366-.884 4.623-.583 1.25-1.378 2.198-2.387 2.845-1.001.639-2.123.959-3.366.959-.881 0-1.63-.146-2.248-.437-.611-.291-1.112-.657-1.502-1.098a5.561 5.561 0 0 1-.895-1.353h-.139v8.758h-4.538Zm4.442-14.318c0 .973.135 1.822.405 2.547.27.724.661 1.289 1.172 1.693.512.398 1.133.597 1.864.597.739 0 1.364-.202 1.875-.607.512-.412.899-.98 1.162-1.705.27-.731.405-1.573.405-2.525 0-.944-.132-1.775-.395-2.492-.262-.718-.649-1.279-1.161-1.684-.511-.405-1.14-.607-1.886-.607-.738 0-1.363.195-1.875.586-.504.39-.891.944-1.161 1.662-.27.717-.405 1.562-.405 2.535Zm17.387-3.153h4.89c2.166 0 3.856.518 5.071 1.555 1.214 1.03 1.821 2.408 1.821 4.134 0 1.122-.273 2.11-.82 2.961-.547.846-1.335 1.506-2.365 1.982-1.03.469-2.266.703-3.707.703h-7.735V15.624h4.336v12.794h3.399c.76 0 1.385-.191 1.875-.575.49-.384.738-.874.745-1.47a1.927 1.927 0 0 0-.745-1.545c-.49-.405-1.115-.607-1.875-.607h-4.89v-3.57Zm23.728 17.471v-22.5h4.474v2.75h.202c.199-.441.487-.889.863-1.343.384-.462.881-.845 1.492-1.15.618-.313 1.385-.47 2.301-.47 1.193 0 2.294.313 3.303.938 1.008.618 1.814 1.552 2.418 2.802.604 1.243.905 2.802.905 4.677 0 1.825-.294 3.366-.884 4.623-.582 1.25-1.378 2.198-2.386 2.845-1.002.639-2.124.959-3.367.959-.88 0-1.63-.146-2.248-.437-.61-.291-1.111-.657-1.502-1.098a5.59 5.59 0 0 1-.895-1.353h-.138v8.758h-4.538Zm4.442-14.318c0 .973.135 1.822.405 2.547.27.724.66 1.289 1.172 1.693.511.398 1.133.597 1.864.597.739 0 1.364-.202 1.875-.607.511-.412.899-.98 1.161-1.705.27-.731.405-1.573.405-2.525 0-.944-.131-1.775-.394-2.492-.263-.718-.65-1.279-1.161-1.684-.512-.405-1.14-.607-1.886-.607-.739 0-1.364.195-1.875.586-.504.39-.891.944-1.161 1.662-.27.717-.405 1.562-.405 2.535Zm22.372 13.743V10.17h4.528v27.38h-4.528Zm0-5.241c-1.257 0-2.404-.203-3.441-.608a7.908 7.908 0 0 1-2.684-1.736 7.865 7.865 0 0 1-1.748-2.674c-.412-1.037-.618-2.177-.618-3.42 0-1.257.206-2.4.618-3.43a7.702 7.702 0 0 1 4.432-4.41c1.037-.413 2.184-.618 3.441-.618h.842v16.896h-.842Zm0-3.537h.501v-9.823h-.501c-.611 0-1.154.128-1.63.384a3.569 3.569 0 0 0-1.204 1.055c-.326.44-.575.958-.745 1.555a7.252 7.252 0 0 0-.245 1.928c0 .91.149 1.737.447 2.483.298.738.735 1.328 1.31 1.768.576.433 1.265.65 2.067.65Zm4.528 3.537h-.842V15.41h.842c1.257 0 2.404.206 3.441.618a7.715 7.715 0 0 1 2.685 1.737 7.742 7.742 0 0 1 1.747 2.674c.412 1.03.618 2.173.618 3.43 0 1.243-.206 2.383-.618 3.42a7.877 7.877 0 0 1-1.747 2.674 7.922 7.922 0 0 1-2.685 1.736c-1.037.405-2.184.608-3.441.608Zm0-3.537c.611 0 1.154-.124 1.63-.373a3.569 3.569 0 0 0 1.204-1.055c.326-.447.575-.966.745-1.555a6.931 6.931 0 0 0 .256-1.918c0-.916-.153-1.743-.458-2.482-.298-.746-.731-1.339-1.3-1.78-.568-.44-1.26-.66-2.077-.66h-.501v9.823h.501Z" fill="#313440"/><path d="M148.867 32.264a2.488 2.488 0 0 1-1.811-.746 2.49 2.49 0 0 1-.746-1.81c0-.697.249-1.293.746-1.79a2.488 2.488 0 0 1 1.811-.746c.682 0 1.278.248 1.79.746.511.497.767 1.093.767 1.79a2.4 2.4 0 0 1-.363 1.288 2.754 2.754 0 0 1-.926.927c-.384.228-.807.341-1.268.341Z" fill="#F85B18"/></svg>