<svg width="16" height="17" viewBox="0 0 16 17" fill="none" xmlns="http://www.w3.org/2000/svg">
<path d="M14.6667 15.1667H1.33337C1.06004 15.1667 0.833374 14.94 0.833374 14.6667C0.833374 14.3933 1.06004 14.1667 1.33337 14.1667H14.6667C14.94 14.1667 15.1667 14.3933 15.1667 14.6667C15.1667 14.94 14.94 15.1667 14.6667 15.1667Z" fill="#CBCBD1"/>
<path d="M6.5 3.16667V15.1667H9.5V3.16667C9.5 2.43333 9.2 1.83333 8.3 1.83333H7.7C6.8 1.83333 6.5 2.43333 6.5 3.16667Z" fill="#CBCBD1"/>
<path d="M2 7.16667V15.1667H4.66667V7.16667C4.66667 6.43333 4.4 5.83333 3.6 5.83333H3.06667C2.26667 5.83333 2 6.43333 2 7.16667Z" fill="#CBCBD1"/>
<path d="M11.3334 10.5V15.1667H14V10.5C14 9.76667 13.7334 9.16667 12.9334 9.16667H12.4C11.6 9.16667 11.3334 9.76667 11.3334 10.5Z" fill="#CBCBD1"/>
</svg>
