<svg width="16" height="17" viewBox="0 0 16 17" fill="none" xmlns="http://www.w3.org/2000/svg">
<path d="M8.86669 5.90667L9.74669 7.66667C9.86669 7.90667 10.1867 8.14667 10.4534 8.18667L12.0467 8.45333C13.0667 8.62667 13.3067 9.36 12.5734 10.0933L11.3334 11.34C11.1267 11.5467 11.0067 11.9533 11.0734 12.2467L11.4267 13.7867C11.7067 15 11.06 15.4733 9.98669 14.84L8.49336 13.9533C8.22002 13.7933 7.78002 13.7933 7.50669 13.9533L6.00669 14.8333C4.93336 15.4667 4.28669 14.9933 4.56669 13.78L4.92002 12.24C4.98669 11.9533 4.86669 11.5467 4.66002 11.3333L3.42669 10.1C2.69336 9.36667 2.93336 8.62667 3.95336 8.46L5.54669 8.19333C5.81336 8.14667 6.13336 7.91333 6.25336 7.67333L7.13336 5.91333C7.60669 4.95333 8.39336 4.95333 8.86669 5.90667Z" fill="#CBCBD1"/>
<path d="M4 7C3.72667 7 3.5 6.77333 3.5 6.5V1.83333C3.5 1.56 3.72667 1.33333 4 1.33333C4.27333 1.33333 4.5 1.56 4.5 1.83333V6.5C4.5 6.77333 4.27333 7 4 7Z" fill="#CBCBD1"/>
<path d="M12 7C11.7267 7 11.5 6.77333 11.5 6.5V1.83333C11.5 1.56 11.7267 1.33333 12 1.33333C12.2733 1.33333 12.5 1.56 12.5 1.83333V6.5C12.5 6.77333 12.2733 7 12 7Z" fill="#CBCBD1"/>
<path d="M8 3.66667C7.72667 3.66667 7.5 3.44 7.5 3.16667V1.83333C7.5 1.56 7.72667 1.33333 8 1.33333C8.27333 1.33333 8.5 1.56 8.5 1.83333V3.16667C8.5 3.44 8.27333 3.66667 8 3.66667Z" fill="#CBCBD1"/>
</svg>
