<svg width="16" height="17" viewBox="0 0 16 17" fill="none" xmlns="http://www.w3.org/2000/svg">
<path d="M10.8333 15.5C11.4776 15.5 12 14.9777 12 14.3333C12 13.689 11.4776 13.1667 10.8333 13.1667C10.189 13.1667 9.66663 13.689 9.66663 14.3333C9.66663 14.9777 10.189 15.5 10.8333 15.5Z" fill="white"/>
<path d="M5.50004 15.5C6.14437 15.5 6.66671 14.9777 6.66671 14.3333C6.66671 13.689 6.14437 13.1667 5.50004 13.1667C4.85571 13.1667 4.33337 13.689 4.33337 14.3333C4.33337 14.9777 4.85571 15.5 5.50004 15.5Z" fill="white"/>
<path d="M3.22671 3.12667L3.09337 4.76C3.06671 5.07333 3.31337 5.33333 3.62671 5.33333H13.8334C14.1134 5.33333 14.3467 5.12 14.3667 4.84C14.4534 3.66 13.5534 2.7 12.3734 2.7H4.18004C4.11337 2.40667 3.98004 2.12667 3.77337 1.89333C3.44004 1.54 2.97337 1.33333 2.49337 1.33333H1.33337C1.06004 1.33333 0.833374 1.56 0.833374 1.83333C0.833374 2.10667 1.06004 2.33333 1.33337 2.33333H2.49337C2.70004 2.33333 2.89337 2.42 3.03337 2.56667C3.17337 2.72 3.24004 2.92 3.22671 3.12667Z" fill="white"/>
<path d="M13.6733 6.33333H3.44666C3.16666 6.33333 2.93999 6.54667 2.91333 6.82L2.67333 9.72C2.57999 10.86 3.47333 11.8333 4.61333 11.8333H12.0267C13.0267 11.8333 13.9067 11.0133 13.98 10.0133L14.2 6.9C14.2267 6.59333 13.9867 6.33333 13.6733 6.33333Z" fill="white"/>
</svg>
