<svg width="16" height="17" fill="none" xmlns="http://www.w3.org/2000/svg"><path d="M10.833 15.5a1.167 1.167 0 1 0 0-2.333 1.167 1.167 0 0 0 0 2.333ZM5.5 15.5a1.167 1.167 0 1 0 0-2.333 1.167 1.167 0 0 0 0 2.333ZM3.227 3.127 3.093 4.76a.529.529 0 0 0 .534.573h10.206c.28 0 .514-.213.534-.493a1.971 1.971 0 0 0-1.994-2.14H4.18a1.818 1.818 0 0 0-.407-.807c-.333-.353-.8-.56-1.28-.56h-1.16c-.273 0-.5.227-.5.5 0 .274.227.5.5.5h1.16c.207 0 .4.087.54.234.14.153.207.353.194.56ZM13.673 6.333H3.447a.536.536 0 0 0-.534.487l-.24 2.9a1.948 1.948 0 0 0 1.94 2.113h7.414c1 0 1.88-.82 1.953-1.82L14.2 6.9a.522.522 0 0 0-.527-.567Z" fill="#fff"/></svg>