<svg width="17" height="17" viewBox="0 0 17 17" fill="none" xmlns="http://www.w3.org/2000/svg">
<path d="M15.46 12.72C15.46 12.96 15.4067 13.2067 15.2933 13.4467C15.18 13.6867 15.0333 13.9133 14.84 14.1267C14.5133 14.4867 14.1533 14.7467 13.7467 14.9133C13.3467 15.08 12.9133 15.1667 12.4467 15.1667C11.7667 15.1667 11.04 15.0067 10.2733 14.68C9.50667 14.3533 8.74 13.9133 7.98 13.36C7.21333 12.8 6.48667 12.18 5.79333 11.4933C5.10667 10.8 4.48667 10.0733 3.93333 9.31333C3.38667 8.55333 2.94667 7.79333 2.62667 7.04C2.30667 6.28 2.14667 5.55333 2.14667 4.86C2.14667 4.40667 2.22667 3.97333 2.38667 3.57333C2.54667 3.16667 2.8 2.79333 3.15333 2.46C3.58 2.04 4.04667 1.83333 4.54 1.83333C4.72667 1.83333 4.91333 1.87333 5.08 1.95333C5.25333 2.03333 5.40667 2.15333 5.52667 2.32667L7.07333 4.50667C7.19333 4.67333 7.28 4.82667 7.34 4.97333C7.4 5.11333 7.43333 5.25333 7.43333 5.38C7.43333 5.54 7.38667 5.7 7.29333 5.85333C7.20667 6.00667 7.08 6.16667 6.92 6.32667L6.41333 6.85333C6.34 6.92667 6.30667 7.01333 6.30667 7.12C6.30667 7.17333 6.31333 7.22 6.32667 7.27333C6.34667 7.32667 6.36667 7.36667 6.38 7.40667C6.5 7.62667 6.70667 7.91333 7 8.26C7.3 8.60667 7.62 8.96 7.96667 9.31333C8.32667 9.66667 8.67333 9.99333 9.02667 10.2933C9.37333 10.5867 9.66 10.7867 9.88667 10.9067C9.92 10.92 9.96 10.94 10.0067 10.96C10.06 10.98 10.1133 10.9867 10.1733 10.9867C10.2867 10.9867 10.3733 10.9467 10.4467 10.8733L10.9533 10.3733C11.12 10.2067 11.28 10.08 11.4333 10C11.5867 9.90667 11.74 9.86 11.9067 9.86C12.0333 9.86 12.1667 9.88667 12.3133 9.94667C12.46 10.0067 12.6133 10.0933 12.78 10.2067L14.9867 11.7733C15.16 11.8933 15.28 12.0333 15.3533 12.2C15.42 12.3667 15.46 12.5333 15.46 12.72Z" fill="white"/>
</svg>
