<svg width="197" height="47" viewBox="0 0 197 47" fill="none" xmlns="http://www.w3.org/2000/svg">
<path fill-rule="evenodd" clip-rule="evenodd" d="M11.0373 5.39258L2.54707 10.2944C0.970904 11.2044 0 12.8861 0 14.7061V32.172C0 33.992 0.970904 35.6737 2.54707 36.5837L11.0373 41.4855V35.1178L6.36358 32.4194C5.83817 32.1161 5.51455 31.5555 5.51455 30.9489V15.9292C5.51455 15.3225 5.83817 14.7619 6.36358 14.4586L11.0373 11.7603V5.39258ZM29.7158 34.9371L34.0765 32.4194C34.6019 32.1161 34.9255 31.5555 34.9255 30.9489V15.9292C34.9255 15.3225 34.6019 14.7619 34.0765 14.4586L29.7158 11.9409V5.57328L37.893 10.2944C39.4692 11.2044 40.4401 12.8861 40.4401 14.7061V32.172C40.4401 33.992 39.4692 35.6737 37.893 36.5837L29.7158 41.3048V34.9371Z" fill="#F85B18"/>
<path fill-rule="evenodd" clip-rule="evenodd" d="M15.2824 3.00262L12.7353 4.47317V42.5268L15.2824 43.9974V3.00262ZM19.5275 46.0128C18.8841 45.9246 18.2537 45.7129 17.673 45.3776L16.9805 44.9777V2.02225L17.673 1.62241C18.2537 1.28713 18.8841 1.07539 19.5275 0.987175V46.0128ZM23.7726 44.797L22.7671 45.3776C22.2809 45.6583 21.7599 45.8524 21.2256 45.9599V1.04007C21.7599 1.14759 22.2809 1.34171 22.7671 1.62241L23.7726 2.20295V44.797ZM28.0177 42.3461L25.4707 43.8167V3.18332L28.0177 4.65387V42.3461Z" fill="#F85B18"/>
<path d="M52.9728 36.7812V28.3863H54.2299C54.5921 28.159 54.8833 27.7968 55.1034 27.2997C55.3307 26.8025 55.5154 26.2166 55.6574 25.5419C55.8066 24.8671 55.9202 24.1392 55.9983 23.3579C56.0836 22.5696 56.1581 21.7741 56.2221 20.9715L56.6482 15.6235H69.1979V28.3863H71.7334V36.7812H67.4081V31.9872H57.4046V36.7812H52.9728ZM58.7469 28.3863H64.9152V19.1179H60.5047L60.3343 20.9715C60.2135 22.7187 60.0395 24.2031 59.8123 25.4247C59.585 26.6392 59.2299 27.6264 58.7469 28.3863ZM74.3781 31.9872V15.6235H81.3561C83.3732 15.6235 84.9676 16.0071 86.1395 16.7741C87.3114 17.5412 87.8973 18.6314 87.8973 20.0447C87.8973 20.9325 87.567 21.6711 86.9065 22.2606C86.246 22.8501 85.3298 23.2478 84.158 23.4538C85.1381 23.5248 85.9726 23.7485 86.6615 24.125C87.3575 24.4943 87.8867 24.9737 88.2489 25.5632C88.6182 26.1527 88.8028 26.8061 88.8028 27.5234C88.8028 28.4538 88.5543 29.2528 88.0571 29.9204C87.567 30.588 86.8462 31.0994 85.8945 31.4545C84.9499 31.8096 83.7957 31.9872 82.4321 31.9872H74.3781ZM78.6075 28.5887H82.4321C83.0642 28.5887 83.5578 28.4396 83.9129 28.1413C84.2751 27.8359 84.4563 27.4204 84.4563 26.8948C84.4563 26.3125 84.2751 25.8544 83.9129 25.5206C83.5578 25.1867 83.0642 25.0198 82.4321 25.0198H78.6075V28.5887ZM78.6075 22.3565H81.452C81.9065 22.3565 82.2936 22.2926 82.6132 22.1647C82.9399 22.0298 83.1885 21.838 83.359 21.5894C83.5365 21.3409 83.6253 21.0461 83.6253 20.7052C83.6253 20.201 83.4229 19.8068 83.018 19.5227C82.6132 19.2386 82.0592 19.0965 81.3561 19.0965H78.6075V22.3565ZM99.1207 32.3068C97.4374 32.3068 95.9886 31.9659 94.7741 31.284C93.5667 30.5951 92.6363 29.6221 91.9829 28.365C91.3295 27.1008 91.0028 25.6058 91.0028 23.8799C91.0028 22.1967 91.3295 20.7194 91.9829 19.4481C92.6363 18.1768 93.556 17.186 94.7421 16.4758C95.9353 15.7656 97.3344 15.4105 98.9396 15.4105C100.019 15.4105 101.024 15.5845 101.954 15.9325C102.892 16.2734 103.709 16.7883 104.405 17.4772C105.108 18.1662 105.655 19.0326 106.045 20.0767C106.436 21.1136 106.631 22.3281 106.631 23.7201V24.9666H92.8139V22.1541H102.359C102.359 21.5007 102.217 20.9218 101.933 20.4176C101.649 19.9133 101.255 19.5191 100.751 19.235C100.253 18.9439 99.6746 18.7983 99.0141 18.7983C98.3252 18.7983 97.7144 18.9581 97.1817 19.2777C96.6562 19.5902 96.2442 20.0127 95.946 20.5454C95.6477 21.071 95.495 21.6569 95.4879 22.3032V24.9772C95.4879 25.7869 95.637 26.4865 95.9353 27.076C96.2407 27.6654 96.6704 28.12 97.2244 28.4396C97.7783 28.7592 98.4353 28.919 99.1952 28.919C99.6995 28.919 100.161 28.848 100.58 28.7059C100.999 28.5639 101.358 28.3508 101.656 28.0667C101.954 27.7826 102.182 27.4346 102.338 27.0227L106.535 27.2997C106.322 28.3082 105.886 29.1889 105.225 29.9417C104.572 30.6875 103.726 31.2698 102.69 31.6889C101.66 32.1008 100.47 32.3068 99.1207 32.3068ZM109.593 38.1235V15.6235H114.067V18.3721H114.27C114.469 17.9318 114.756 17.4843 115.133 17.0298C115.516 16.5681 116.013 16.1846 116.624 15.8792C117.242 15.5667 118.009 15.4105 118.925 15.4105C120.119 15.4105 121.219 15.723 122.228 16.348C123.236 16.9659 124.043 17.8998 124.646 19.1498C125.25 20.3927 125.552 21.9517 125.552 23.8267C125.552 25.6519 125.257 27.1931 124.668 28.4502C124.085 29.7002 123.29 30.6484 122.281 31.2947C121.28 31.9339 120.158 32.2535 118.915 32.2535C118.034 32.2535 117.285 32.1079 116.667 31.8167C116.056 31.5255 115.555 31.1598 115.165 30.7194C114.774 30.272 114.476 29.821 114.27 29.3664H114.131V38.1235H109.593ZM114.035 23.8054C114.035 24.7784 114.17 25.6271 114.44 26.3515C114.71 27.076 115.101 27.6406 115.612 28.0454C116.124 28.4431 116.745 28.642 117.476 28.642C118.215 28.642 118.84 28.4396 119.351 28.0348C119.863 27.6228 120.25 27.0546 120.513 26.3302C120.783 25.5987 120.918 24.7571 120.918 23.8054C120.918 22.8608 120.786 22.0298 120.523 21.3125C120.261 20.5951 119.874 20.034 119.362 19.6292C118.851 19.2244 118.222 19.022 117.476 19.022C116.738 19.022 116.113 19.2173 115.601 19.6079C115.097 19.9985 114.71 20.5525 114.44 21.2698C114.17 21.9872 114.035 22.8323 114.035 23.8054ZM131.422 20.6519H136.312C138.478 20.6519 140.168 21.1704 141.383 22.2073C142.597 23.2372 143.204 24.615 143.204 26.3409C143.204 27.463 142.931 28.4502 142.384 29.3025C141.837 30.1477 141.049 30.8082 140.019 31.284C138.989 31.7528 137.753 31.9872 136.312 31.9872H128.577V15.6235H132.913V28.4183H136.312C137.072 28.4183 137.697 28.2265 138.187 27.843C138.677 27.4595 138.925 26.9694 138.932 26.3728C138.925 25.7407 138.677 25.2258 138.187 24.8281C137.697 24.4233 137.072 24.2208 136.312 24.2208H131.422V20.6519ZM155.15 38.1235V15.6235H159.624V18.3721H159.826C160.025 17.9318 160.313 17.4843 160.689 17.0298C161.073 16.5681 161.57 16.1846 162.181 15.8792C162.799 15.5667 163.566 15.4105 164.482 15.4105C165.675 15.4105 166.776 15.723 167.785 16.348C168.793 16.9659 169.599 17.8998 170.203 19.1498C170.807 20.3927 171.108 21.9517 171.108 23.8267C171.108 25.6519 170.814 27.1931 170.224 28.4502C169.642 29.7002 168.846 30.6484 167.838 31.2947C166.836 31.9339 165.714 32.2535 164.471 32.2535C163.591 32.2535 162.841 32.1079 162.223 31.8167C161.613 31.5255 161.112 31.1598 160.721 30.7194C160.331 30.272 160.032 29.821 159.826 29.3664H159.688V38.1235H155.15ZM159.592 23.8054C159.592 24.7784 159.727 25.6271 159.997 26.3515C160.267 27.076 160.657 27.6406 161.169 28.0454C161.68 28.4431 162.302 28.642 163.033 28.642C163.772 28.642 164.397 28.4396 164.908 28.0348C165.419 27.6228 165.807 27.0546 166.069 26.3302C166.339 25.5987 166.474 24.7571 166.474 23.8054C166.474 22.8608 166.343 22.0298 166.08 21.3125C165.817 20.5951 165.43 20.034 164.919 19.6292C164.407 19.2244 163.779 19.022 163.033 19.022C162.294 19.022 161.669 19.2173 161.158 19.6079C160.654 19.9985 160.267 20.5525 159.997 21.2698C159.727 21.9872 159.592 22.8323 159.592 23.8054ZM181.964 37.5483V10.169H186.492V37.5483H181.964ZM181.964 32.3068C180.707 32.3068 179.56 32.1044 178.523 31.6995C177.486 31.2876 176.591 30.7088 175.839 29.963C175.086 29.2102 174.503 28.3189 174.091 27.289C173.679 26.2521 173.473 25.1122 173.473 23.8693C173.473 22.6122 173.679 21.4687 174.091 20.4389C174.503 19.4019 175.086 18.5106 175.839 17.7649C176.591 17.012 177.486 16.4332 178.523 16.0284C179.56 15.6164 180.707 15.4105 181.964 15.4105H182.806V32.3068H181.964ZM181.964 28.7698H182.465V18.9474H181.964C181.353 18.9474 180.81 19.0752 180.334 19.3309C179.858 19.5866 179.457 19.9382 179.13 20.3856C178.804 20.826 178.555 21.3444 178.385 21.941C178.221 22.5376 178.14 23.1804 178.14 23.8693C178.14 24.7784 178.289 25.6058 178.587 26.3515C178.885 27.0902 179.322 27.6796 179.897 28.12C180.473 28.5532 181.162 28.7698 181.964 28.7698ZM186.492 32.3068H185.65V15.4105H186.492C187.749 15.4105 188.896 15.6164 189.933 16.0284C190.97 16.4332 191.865 17.012 192.618 17.7649C193.37 18.5106 193.953 19.4019 194.365 20.4389C194.777 21.4687 194.983 22.6122 194.983 23.8693C194.983 25.1122 194.777 26.2521 194.365 27.289C193.953 28.3189 193.37 29.2102 192.618 29.963C191.865 30.7088 190.97 31.2876 189.933 31.6995C188.896 32.1044 187.749 32.3068 186.492 32.3068ZM186.492 28.7698C187.103 28.7698 187.646 28.6456 188.122 28.397C188.598 28.1413 188.999 27.7897 189.326 27.3423C189.652 26.8948 189.901 26.3764 190.071 25.7869C190.242 25.1903 190.327 24.5511 190.327 23.8693C190.327 22.9531 190.174 22.1257 189.869 21.387C189.571 20.6413 189.138 20.0483 188.569 19.6079C188.001 19.1676 187.309 18.9474 186.492 18.9474H185.991V28.7698H186.492Z" fill="#313440"/>
<path d="M148.867 32.2642C148.164 32.2642 147.56 32.0156 147.056 31.5184C146.559 31.0142 146.31 30.4105 146.31 29.7073C146.31 29.0113 146.559 28.4147 147.056 27.9176C147.56 27.4204 148.164 27.1718 148.867 27.1718C149.549 27.1718 150.145 27.4204 150.657 27.9176C151.168 28.4147 151.424 29.0113 151.424 29.7073C151.424 30.1761 151.303 30.6058 151.061 30.9964C150.827 31.3799 150.518 31.6889 150.135 31.9233C149.751 32.1505 149.328 32.2642 148.867 32.2642Z" fill="#F85B18"/>
</svg>
